STARTFONT 2.1
COMMENT Recovered from cm10.ast (MIT CADR textual AST font source)
FONT MIT-CADR-CM10
SIZE 12 72 72
FONTBOUNDINGBOX 15 12 0 -3
STARTPROPERTIES 2
FONT_ASCENT 9
FONT_DESCENT 3
ENDPROPERTIES
CHARS 127
STARTCHAR C0001
ENCODING -1 1
SWIDTH 500 0
DWIDTH 6 0
BBX 5 12 0 -3
BITMAP
10
20
40
80
40
20
10
00
F8
00
00
00
ENDCHAR
STARTCHAR C0002
ENCODING -1 2
SWIDTH 0 0
DWIDTH 0 0
BBX 1 12 0 -3
BITMAP
00
00
00
00
00
00
00
00
00
00
00
00
ENDCHAR
STARTCHAR C0003
ENCODING -1 3
SWIDTH 500 0
DWIDTH 6 0
BBX 4 12 1 -3
BITMAP
00
60
90
90
60
00
60
90
90
60
00
00
ENDCHAR
STARTCHAR C0004
ENCODING -1 4
SWIDTH 0 0
DWIDTH 0 0
BBX 1 12 0 -3
BITMAP
00
00
00
00
00
00
00
00
00
00
00
00
ENDCHAR
STARTCHAR C0005
ENCODING -1 5
SWIDTH 750 0
DWIDTH 9 0
BBX 9 12 0 -3
BITMAP
0000
0000
0080
0180
0300
1600
3C00
5800
9000
0000
0000
0000
ENDCHAR
STARTCHAR C0006
ENCODING -1 6
SWIDTH 583 0
DWIDTH 7 0
BBX 5 12 1 -3
BITMAP
00
00
00
F8
00
F8
00
F8
00
00
00
00
ENDCHAR
STARTCHAR C0007
ENCODING -1 7
SWIDTH 667 0
DWIDTH 8 0
BBX 5 12 1 -3
BITMAP
00
00
00
70
88
88
88
70
00
00
00
00
ENDCHAR
STARTCHAR C0008
ENCODING -1 8
SWIDTH 0 0
DWIDTH 0 0
BBX 1 12 0 -3
BITMAP
00
00
00
00
00
00
00
00
00
00
00
00
ENDCHAR
STARTCHAR C0009
ENCODING -1 9
SWIDTH 0 0
DWIDTH 0 0
BBX 1 12 0 -3
BITMAP
00
00
00
00
00
00
00
00
00
00
00
00
ENDCHAR
STARTCHAR C000A
ENCODING -1 10
SWIDTH 0 0
DWIDTH 0 0
BBX 1 12 0 -3
BITMAP
00
00
00
00
00
00
00
00
00
00
00
00
ENDCHAR
STARTCHAR C000B
ENCODING -1 11
SWIDTH 0 0
DWIDTH 0 0
BBX 1 12 0 -3
BITMAP
00
00
00
00
00
00
00
00
00
00
00
00
ENDCHAR
STARTCHAR C000C
ENCODING -1 12
SWIDTH 0 0
DWIDTH 0 0
BBX 1 12 0 -3
BITMAP
00
00
00
00
00
00
00
00
00
00
00
00
ENDCHAR
STARTCHAR C000D
ENCODING -1 13
SWIDTH 0 0
DWIDTH 0 0
BBX 1 12 0 -3
BITMAP
00
00
00
00
00
00
00
00
00
00
00
00
ENDCHAR
STARTCHAR C000E
ENCODING -1 14
SWIDTH 667 0
DWIDTH 8 0
BBX 6 12 1 -3
BITMAP
00
08
10
FC
20
FC
40
80
00
00
00
00
ENDCHAR
STARTCHAR C000F
ENCODING -1 15
SWIDTH 917 0
DWIDTH 11 0
BBX 9 12 0 -3
BITMAP
0400
0200
0100
3F80
4100
8200
8400
A000
4000
0000
0000
0000
ENDCHAR
STARTCHAR C0010
ENCODING -1 16
SWIDTH 0 0
DWIDTH 0 0
BBX 1 12 0 -3
BITMAP
00
00
00
00
00
00
00
00
00
00
00
00
ENDCHAR
STARTCHAR C0011
ENCODING -1 17
SWIDTH 667 0
DWIDTH 8 0
BBX 7 12 0 -3
BITMAP
10
28
44
C6
44
44
44
44
44
44
00
00
ENDCHAR
STARTCHAR C0012
ENCODING -1 18
SWIDTH 500 0
DWIDTH 6 0
BBX 5 12 0 -3
BITMAP
40
20
10
08
10
20
40
00
F8
00
00
00
ENDCHAR
STARTCHAR C0013
ENCODING -1 19
SWIDTH 750 0
DWIDTH 9 0
BBX 6 12 1 -3
BITMAP
80
80
38
44
40
38
04
44
38
00
00
00
ENDCHAR
STARTCHAR C0014
ENCODING -1 20
SWIDTH 1250 0
DWIDTH 15 0
BBX 13 12 2 -3
BITMAP
C000
C000
C000
C000
C000
C000
C000
C000
C000
FFF8
FFF8
0000
ENDCHAR
STARTCHAR C0015
ENCODING -1 21
SWIDTH 667 0
DWIDTH 8 0
BBX 7 12 1 -3
BITMAP
FE
00
00
00
00
00
00
00
00
00
00
00
ENDCHAR
STARTCHAR C0016
ENCODING -1 22
SWIDTH 750 0
DWIDTH 9 0
BBX 7 12 0 -3
BITMAP
04
08
18
24
44
C4
38
0C
02
00
00
00
ENDCHAR
STARTCHAR C0017
ENCODING -1 23
SWIDTH 1000 0
DWIDTH 12 0
BBX 9 12 1 -3
BITMAP
0000
3E00
4100
8080
8880
9480
8880
8080
4100
3E00
0000
0000
ENDCHAR
STARTCHAR C0018
ENCODING -1 24
SWIDTH 1000 0
DWIDTH 12 0
BBX 10 12 1 -3
BITMAP
0000
0000
0000
0000
5540
AA80
0000
0000
0000
0000
0000
0000
ENDCHAR
STARTCHAR C0019
ENCODING -1 25
SWIDTH 917 0
DWIDTH 11 0
BBX 9 12 1 -3
BITMAP
FF80
FB80
FD80
FE80
8000
FE80
FD80
FB80
FF80
0000
0000
0000
ENDCHAR
STARTCHAR C001A
ENCODING -1 26
SWIDTH 0 0
DWIDTH 0 0
BBX 1 12 0 -3
BITMAP
00
00
00
00
00
00
00
00
00
00
00
00
ENDCHAR
STARTCHAR C001B
ENCODING -1 27
SWIDTH 750 0
DWIDTH 9 0
BBX 8 12 0 -3
BITMAP
00
00
00
00
08
FC
02
01
02
FC
08
00
ENDCHAR
STARTCHAR C001C
ENCODING -1 28
SWIDTH 0 0
DWIDTH 0 0
BBX 1 12 0 -3
BITMAP
00
00
00
00
00
00
00
00
00
00
00
00
ENDCHAR
STARTCHAR C001D
ENCODING -1 29
SWIDTH 917 0
DWIDTH 11 0
BBX 9 12 1 -3
BITMAP
FF80
8080
8080
8080
8080
8080
8080
8080
FF80
0000
0000
0000
ENDCHAR
STARTCHAR C001E
ENCODING -1 30
SWIDTH 1250 0
DWIDTH 15 0
BBX 13 12 0 -3
BITMAP
0018
0018
0018
0018
0018
0018
0018
0018
0018
FFF8
FFF8
0000
ENDCHAR
STARTCHAR C001F
ENCODING -1 31
SWIDTH 0 0
DWIDTH 0 0
BBX 1 12 0 -3
BITMAP
00
00
00
00
00
00
00
00
00
00
00
00
ENDCHAR
STARTCHAR C0020
ENCODING -1 32
SWIDTH 417 0
DWIDTH 5 0
BBX 1 12 0 -3
BITMAP
00
00
00
00
00
00
00
00
00
00
00
00
ENDCHAR
STARTCHAR C0021
ENCODING -1 33
SWIDTH 333 0
DWIDTH 4 0
BBX 1 12 1 -3
BITMAP
80
80
80
80
80
80
80
00
80
80
00
00
ENDCHAR
STARTCHAR C0022
ENCODING -1 34
SWIDTH 500 0
DWIDTH 6 0
BBX 3 12 1 -3
BITMAP
A0
A0
A0
A0
00
00
00
00
00
00
00
00
ENDCHAR
STARTCHAR C0023
ENCODING -1 35
SWIDTH 750 0
DWIDTH 9 0
BBX 8 12 0 -3
BITMAP
12
12
7F
24
24
FE
48
48
00
00
00
00
ENDCHAR
STARTCHAR C0024
ENCODING -1 36
SWIDTH 750 0
DWIDTH 9 0
BBX 6 12 1 -3
BITMAP
20
20
78
A4
A0
78
24
A4
78
20
20
00
ENDCHAR
STARTCHAR C0025
ENCODING -1 37
SWIDTH 917 0
DWIDTH 11 0
BBX 9 12 1 -3
BITMAP
6000
9100
9200
6400
0800
1300
2480
4480
0300
0000
0000
0000
ENDCHAR
STARTCHAR C0026
ENCODING -1 38
SWIDTH 917 0
DWIDTH 11 0
BBX 8 12 1 -3
BITMAP
00
00
70
88
80
73
84
88
70
00
00
00
ENDCHAR
STARTCHAR C0027
ENCODING -1 39
SWIDTH 333 0
DWIDTH 4 0
BBX 1 12 1 -3
BITMAP
80
80
80
80
00
00
00
00
00
00
00
00
ENDCHAR
STARTCHAR C0028
ENCODING -1 40
SWIDTH 417 0
DWIDTH 5 0
BBX 3 12 1 -3
BITMAP
20
40
40
80
80
80
80
40
40
20
00
00
ENDCHAR
STARTCHAR C0029
ENCODING -1 41
SWIDTH 417 0
DWIDTH 5 0
BBX 3 12 1 -3
BITMAP
80
40
40
20
20
20
20
40
40
80
00
00
ENDCHAR
STARTCHAR C002A
ENCODING -1 42
SWIDTH 750 0
DWIDTH 9 0
BBX 7 12 1 -3
BITMAP
00
10
54
38
EE
38
54
10
00
00
00
00
ENDCHAR
STARTCHAR C002B
ENCODING -1 43
SWIDTH 667 0
DWIDTH 8 0
BBX 7 12 1 -3
BITMAP
00
10
10
10
FE
10
10
10
00
00
00
00
ENDCHAR
STARTCHAR C002C
ENCODING -1 44
SWIDTH 333 0
DWIDTH 4 0
BBX 2 12 1 -3
BITMAP
00
00
00
00
00
00
00
C0
C0
40
80
00
ENDCHAR
STARTCHAR C002D
ENCODING -1 45
SWIDTH 667 0
DWIDTH 8 0
BBX 6 12 1 -3
BITMAP
00
00
00
00
FC
00
00
00
00
00
00
00
ENDCHAR
STARTCHAR C002E
ENCODING -1 46
SWIDTH 333 0
DWIDTH 4 0
BBX 2 12 1 -3
BITMAP
00
00
00
00
00
00
00
C0
C0
00
00
00
ENDCHAR
STARTCHAR C002F
ENCODING -1 47
SWIDTH 667 0
DWIDTH 8 0
BBX 5 12 1 -3
BITMAP
00
08
10
10
20
20
40
40
80
80
00
00
ENDCHAR
STARTCHAR C0030
ENCODING -1 48
SWIDTH 500 0
DWIDTH 6 0
BBX 5 12 0 -3
BITMAP
00
70
88
88
88
88
88
88
70
00
00
00
ENDCHAR
STARTCHAR C0031
ENCODING -1 49
SWIDTH 500 0
DWIDTH 6 0
BBX 2 12 1 -3
BITMAP
00
40
C0
40
40
40
40
40
40
00
00
00
ENDCHAR
STARTCHAR C0032
ENCODING -1 50
SWIDTH 500 0
DWIDTH 6 0
BBX 5 12 0 -3
BITMAP
00
70
88
08
10
20
40
80
F8
00
00
00
ENDCHAR
STARTCHAR C0033
ENCODING -1 51
SWIDTH 500 0
DWIDTH 6 0
BBX 5 12 0 -3
BITMAP
00
70
88
08
30
08
08
88
70
00
00
00
ENDCHAR
STARTCHAR C0034
ENCODING -1 52
SWIDTH 583 0
DWIDTH 7 0
BBX 5 12 0 -3
BITMAP
00
30
30
50
50
90
F8
10
10
00
00
00
ENDCHAR
STARTCHAR C0035
ENCODING -1 53
SWIDTH 500 0
DWIDTH 6 0
BBX 5 12 0 -3
BITMAP
00
F8
80
80
F0
08
08
88
70
00
00
00
ENDCHAR
STARTCHAR C0036
ENCODING -1 54
SWIDTH 500 0
DWIDTH 6 0
BBX 5 12 0 -3
BITMAP
00
38
40
80
F0
88
88
88
70
00
00
00
ENDCHAR
STARTCHAR C0037
ENCODING -1 55
SWIDTH 500 0
DWIDTH 6 0
BBX 4 12 1 -3
BITMAP
00
F0
10
20
20
40
40
80
80
00
00
00
ENDCHAR
STARTCHAR C0038
ENCODING -1 56
SWIDTH 500 0
DWIDTH 6 0
BBX 5 12 0 -3
BITMAP
00
70
88
88
70
88
88
88
70
00
00
00
ENDCHAR
STARTCHAR C0039
ENCODING -1 57
SWIDTH 500 0
DWIDTH 6 0
BBX 5 12 0 -3
BITMAP
00
70
88
88
88
78
08
10
E0
00
00
00
ENDCHAR
STARTCHAR C003A
ENCODING -1 58
SWIDTH 333 0
DWIDTH 4 0
BBX 2 12 1 -3
BITMAP
00
00
00
C0
C0
00
00
C0
C0
00
00
00
ENDCHAR
STARTCHAR C003B
ENCODING -1 59
SWIDTH 333 0
DWIDTH 4 0
BBX 2 12 1 -3
BITMAP
00
00
00
C0
C0
00
00
C0
C0
40
80
00
ENDCHAR
STARTCHAR C003C
ENCODING -1 60
SWIDTH 500 0
DWIDTH 6 0
BBX 4 12 1 -3
BITMAP
00
10
20
40
80
40
20
10
00
00
00
00
ENDCHAR
STARTCHAR C003D
ENCODING -1 61
SWIDTH 667 0
DWIDTH 8 0
BBX 6 12 1 -3
BITMAP
00
00
00
FC
00
00
FC
00
00
00
00
00
ENDCHAR
STARTCHAR C003E
ENCODING -1 62
SWIDTH 500 0
DWIDTH 6 0
BBX 4 12 1 -3
BITMAP
00
80
40
20
10
20
40
80
00
00
00
00
ENDCHAR
STARTCHAR C003F
ENCODING -1 63
SWIDTH 583 0
DWIDTH 7 0
BBX 5 12 1 -3
BITMAP
70
88
88
08
30
40
00
40
40
00
00
00
ENDCHAR
STARTCHAR C0040
ENCODING -1 64
SWIDTH 1083 0
DWIDTH 13 0
BBX 10 12 1 -3
BITMAP
3F00
4080
8040
8E40
9240
9240
9240
9680
8B00
4000
3800
0000
ENDCHAR
STARTCHAR C0041
ENCODING -1 65
SWIDTH 750 0
DWIDTH 9 0
BBX 7 12 1 -3
BITMAP
10
10
38
28
44
7C
82
82
82
00
00
00
ENDCHAR
STARTCHAR C0042
ENCODING -1 66
SWIDTH 583 0
DWIDTH 7 0
BBX 5 12 1 -3
BITMAP
F0
88
88
88
F0
88
88
88
F0
00
00
00
ENDCHAR
STARTCHAR C0043
ENCODING -1 67
SWIDTH 750 0
DWIDTH 9 0
BBX 7 12 1 -3
BITMAP
3C
42
80
80
80
80
80
42
3C
00
00
00
ENDCHAR
STARTCHAR C0044
ENCODING -1 68
SWIDTH 750 0
DWIDTH 9 0
BBX 7 12 1 -3
BITMAP
F8
84
82
82
82
82
82
84
F8
00
00
00
ENDCHAR
STARTCHAR C0045
ENCODING -1 69
SWIDTH 500 0
DWIDTH 6 0
BBX 4 12 1 -3
BITMAP
F0
80
80
80
E0
80
80
80
F0
00
00
00
ENDCHAR
STARTCHAR C0046
ENCODING -1 70
SWIDTH 500 0
DWIDTH 6 0
BBX 4 12 1 -3
BITMAP
F0
80
80
80
E0
80
80
80
80
00
00
00
ENDCHAR
STARTCHAR C0047
ENCODING -1 71
SWIDTH 750 0
DWIDTH 9 0
BBX 7 12 1 -3
BITMAP
3C
42
80
80
8E
82
82
42
3C
00
00
00
ENDCHAR
STARTCHAR C0048
ENCODING -1 72
SWIDTH 667 0
DWIDTH 8 0
BBX 6 12 1 -3
BITMAP
84
84
84
84
FC
84
84
84
84
00
00
00
ENDCHAR
STARTCHAR C0049
ENCODING -1 73
SWIDTH 250 0
DWIDTH 3 0
BBX 1 12 1 -3
BITMAP
80
80
80
80
80
80
80
80
80
00
00
00
ENDCHAR
STARTCHAR C004A
ENCODING -1 74
SWIDTH 333 0
DWIDTH 4 0
BBX 3 12 0 -3
BITMAP
20
20
20
20
20
20
20
20
20
40
80
00
ENDCHAR
STARTCHAR C004B
ENCODING -1 75
SWIDTH 667 0
DWIDTH 8 0
BBX 6 12 1 -3
BITMAP
88
90
A0
C0
C0
A0
90
88
84
00
00
00
ENDCHAR
STARTCHAR C004C
ENCODING -1 76
SWIDTH 500 0
DWIDTH 6 0
BBX 4 12 1 -3
BITMAP
80
80
80
80
80
80
80
80
F0
00
00
00
ENDCHAR
STARTCHAR C004D
ENCODING -1 77
SWIDTH 917 0
DWIDTH 11 0
BBX 9 12 1 -3
BITMAP
8080
C180
C180
A280
A280
9480
9480
8880
8880
0000
0000
0000
ENDCHAR
STARTCHAR C004E
ENCODING -1 78
SWIDTH 667 0
DWIDTH 8 0
BBX 6 12 1 -3
BITMAP
84
C4
C4
A4
A4
94
8C
8C
84
00
00
00
ENDCHAR
STARTCHAR C004F
ENCODING -1 79
SWIDTH 833 0
DWIDTH 10 0
BBX 8 12 1 -3
BITMAP
3C
42
81
81
81
81
81
42
3C
00
00
00
ENDCHAR
STARTCHAR C0050
ENCODING -1 80
SWIDTH 583 0
DWIDTH 7 0
BBX 5 12 1 -3
BITMAP
F0
88
88
88
F0
80
80
80
80
00
00
00
ENDCHAR
STARTCHAR C0051
ENCODING -1 81
SWIDTH 833 0
DWIDTH 10 0
BBX 8 12 1 -3
BITMAP
3C
42
81
81
81
81
81
42
3C
02
01
00
ENDCHAR
STARTCHAR C0052
ENCODING -1 82
SWIDTH 583 0
DWIDTH 7 0
BBX 5 12 1 -3
BITMAP
F0
88
88
88
F0
A0
90
90
88
00
00
00
ENDCHAR
STARTCHAR C0053
ENCODING -1 83
SWIDTH 500 0
DWIDTH 6 0
BBX 4 12 1 -3
BITMAP
60
90
80
80
60
10
10
90
60
00
00
00
ENDCHAR
STARTCHAR C0054
ENCODING -1 84
SWIDTH 667 0
DWIDTH 8 0
BBX 6 12 1 -3
BITMAP
FC
20
20
20
20
20
20
20
20
00
00
00
ENDCHAR
STARTCHAR C0055
ENCODING -1 85
SWIDTH 667 0
DWIDTH 8 0
BBX 6 12 1 -3
BITMAP
84
84
84
84
84
84
8C
94
64
00
00
00
ENDCHAR
STARTCHAR C0056
ENCODING -1 86
SWIDTH 750 0
DWIDTH 9 0
BBX 7 12 1 -3
BITMAP
82
82
44
44
28
28
28
10
10
00
00
00
ENDCHAR
STARTCHAR C0057
ENCODING -1 87
SWIDTH 1083 0
DWIDTH 13 0
BBX 11 12 1 -3
BITMAP
8420
8420
4440
4440
4440
2A80
2A80
1100
1100
0000
0000
0000
ENDCHAR
STARTCHAR C0058
ENCODING -1 88
SWIDTH 583 0
DWIDTH 7 0
BBX 5 12 1 -3
BITMAP
88
88
50
70
20
70
50
88
88
00
00
00
ENDCHAR
STARTCHAR C0059
ENCODING -1 89
SWIDTH 750 0
DWIDTH 9 0
BBX 7 12 1 -3
BITMAP
82
44
44
28
10
10
10
10
10
00
00
00
ENDCHAR
STARTCHAR C005A
ENCODING -1 90
SWIDTH 667 0
DWIDTH 8 0
BBX 6 12 1 -3
BITMAP
FC
04
08
10
20
40
80
80
FC
00
00
00
ENDCHAR
STARTCHAR C005B
ENCODING -1 91
SWIDTH 417 0
DWIDTH 5 0
BBX 3 12 1 -3
BITMAP
E0
80
80
80
80
80
80
80
80
80
E0
00
ENDCHAR
STARTCHAR C005C
ENCODING -1 92
SWIDTH 667 0
DWIDTH 8 0
BBX 5 12 2 -3
BITMAP
80
80
40
40
20
20
10
10
08
08
00
00
ENDCHAR
STARTCHAR C005D
ENCODING -1 93
SWIDTH 333 0
DWIDTH 4 0
BBX 3 12 1 -3
BITMAP
E0
20
20
20
20
20
20
20
20
20
E0
00
ENDCHAR
STARTCHAR C005E
ENCODING -1 94
SWIDTH 667 0
DWIDTH 8 0
BBX 7 12 0 -3
BITMAP
10
38
54
92
10
10
10
10
10
00
00
00
ENDCHAR
STARTCHAR C005F
ENCODING -1 95
SWIDTH 833 0
DWIDTH 10 0
BBX 8 12 1 -3
BITMAP
00
10
20
40
FF
40
20
10
00
00
00
00
ENDCHAR
STARTCHAR C0060
ENCODING -1 96
SWIDTH 0 0
DWIDTH 0 0
BBX 1 12 0 -3
BITMAP
00
00
00
00
00
00
00
00
00
00
00
00
ENDCHAR
STARTCHAR C0061
ENCODING -1 97
SWIDTH 583 0
DWIDTH 7 0
BBX 7 12 0 -3
BITMAP
00
00
38
48
88
88
9A
AC
48
00
00
00
ENDCHAR
STARTCHAR C0062
ENCODING -1 98
SWIDTH 500 0
DWIDTH 6 0
BBX 5 12 0 -3
BITMAP
80
80
B0
C8
88
88
88
90
E0
00
00
00
ENDCHAR
STARTCHAR C0063
ENCODING -1 99
SWIDTH 500 0
DWIDTH 6 0
BBX 5 12 0 -3
BITMAP
00
00
38
40
80
80
88
90
60
00
00
00
ENDCHAR
STARTCHAR C0064
ENCODING -1 100
SWIDTH 583 0
DWIDTH 7 0
BBX 7 12 0 -3
BITMAP
08
08
38
48
88
88
98
AA
4C
00
00
00
ENDCHAR
STARTCHAR C0065
ENCODING -1 101
SWIDTH 500 0
DWIDTH 6 0
BBX 5 12 0 -3
BITMAP
00
00
30
48
90
A0
C8
90
60
00
00
00
ENDCHAR
STARTCHAR C0066
ENCODING -1 102
SWIDTH 417 0
DWIDTH 5 0
BBX 4 12 0 -3
BITMAP
30
40
40
F0
40
40
40
40
40
40
40
40
ENDCHAR
STARTCHAR C0067
ENCODING -1 103
SWIDTH 500 0
DWIDTH 6 0
BBX 5 12 0 -3
BITMAP
00
00
38
48
88
88
98
A8
48
08
10
60
ENDCHAR
STARTCHAR C0068
ENCODING -1 104
SWIDTH 583 0
DWIDTH 7 0
BBX 7 12 0 -3
BITMAP
80
80
B0
C8
88
88
88
8A
8C
00
00
00
ENDCHAR
STARTCHAR C0069
ENCODING -1 105
SWIDTH 333 0
DWIDTH 4 0
BBX 4 12 0 -3
BITMAP
40
00
40
C0
40
40
40
50
60
00
00
00
ENDCHAR
STARTCHAR C006A
ENCODING -1 106
SWIDTH 417 0
DWIDTH 5 0
BBX 3 12 0 -3
BITMAP
20
00
20
60
20
20
20
20
20
20
40
80
ENDCHAR
STARTCHAR C006B
ENCODING -1 107
SWIDTH 583 0
DWIDTH 7 0
BBX 6 12 0 -3
BITMAP
80
80
B0
C8
88
F0
A0
90
8C
00
00
00
ENDCHAR
STARTCHAR C006C
ENCODING -1 108
SWIDTH 250 0
DWIDTH 3 0
BBX 3 12 0 -3
BITMAP
80
80
80
80
80
80
80
A0
C0
00
00
00
ENDCHAR
STARTCHAR C006D
ENCODING -1 109
SWIDTH 1000 0
DWIDTH 12 0
BBX 12 12 0 -3
BITMAP
0000
0000
D980
6640
4440
4440
4440
4450
4460
0000
0000
0000
ENDCHAR
STARTCHAR C006E
ENCODING -1 110
SWIDTH 667 0
DWIDTH 8 0
BBX 8 12 0 -3
BITMAP
00
00
D8
64
44
44
44
45
46
00
00
00
ENDCHAR
STARTCHAR C006F
ENCODING -1 111
SWIDTH 500 0
DWIDTH 6 0
BBX 5 12 0 -3
BITMAP
00
00
70
88
88
88
88
88
70
00
00
00
ENDCHAR
STARTCHAR C0070
ENCODING -1 112
SWIDTH 583 0
DWIDTH 7 0
BBX 6 12 0 -3
BITMAP
00
00
58
E4
44
44
44
48
70
40
40
40
ENDCHAR
STARTCHAR C0071
ENCODING -1 113
SWIDTH 583 0
DWIDTH 7 0
BBX 7 12 0 -3
BITMAP
00
00
38
48
88
88
98
A8
48
08
0A
0C
ENDCHAR
STARTCHAR C0072
ENCODING -1 114
SWIDTH 417 0
DWIDTH 5 0
BBX 5 12 0 -3
BITMAP
00
00
58
E0
40
40
40
40
40
00
00
00
ENDCHAR
STARTCHAR C0073
ENCODING -1 115
SWIDTH 500 0
DWIDTH 6 0
BBX 5 12 0 -3
BITMAP
00
00
70
88
80
70
08
88
70
00
00
00
ENDCHAR
STARTCHAR C0074
ENCODING -1 116
SWIDTH 417 0
DWIDTH 5 0
BBX 4 12 0 -3
BITMAP
00
00
70
C0
40
40
40
50
60
00
00
00
ENDCHAR
STARTCHAR C0075
ENCODING -1 117
SWIDTH 667 0
DWIDTH 8 0
BBX 8 12 0 -3
BITMAP
00
00
44
C4
44
44
4C
55
26
00
00
00
ENDCHAR
STARTCHAR C0076
ENCODING -1 118
SWIDTH 583 0
DWIDTH 7 0
BBX 6 12 0 -3
BITMAP
00
00
C8
44
44
44
48
50
60
00
00
00
ENDCHAR
STARTCHAR C0077
ENCODING -1 119
SWIDTH 917 0
DWIDTH 11 0
BBX 10 12 0 -3
BITMAP
0000
0000
C480
4440
4440
4C40
5480
6500
4600
0000
0000
0000
ENDCHAR
STARTCHAR C0078
ENCODING -1 120
SWIDTH 500 0
DWIDTH 6 0
BBX 5 12 0 -3
BITMAP
00
00
88
50
70
20
70
50
88
00
00
00
ENDCHAR
STARTCHAR C0079
ENCODING -1 121
SWIDTH 583 0
DWIDTH 7 0
BBX 6 12 0 -3
BITMAP
00
00
44
C4
44
44
4C
54
24
04
08
30
ENDCHAR
STARTCHAR C007A
ENCODING -1 122
SWIDTH 500 0
DWIDTH 6 0
BBX 5 12 0 -3
BITMAP
00
00
F8
08
10
20
40
80
F8
00
00
00
ENDCHAR
STARTCHAR C007B
ENCODING -1 123
SWIDTH 417 0
DWIDTH 5 0
BBX 4 12 0 -3
BITMAP
00
30
40
40
40
80
80
40
40
40
30
00
ENDCHAR
STARTCHAR C007C
ENCODING -1 124
SWIDTH 417 0
DWIDTH 5 0
BBX 1 12 2 -3
BITMAP
80
80
80
80
80
80
80
80
80
80
80
80
ENDCHAR
STARTCHAR C007D
ENCODING -1 125
SWIDTH 417 0
DWIDTH 5 0
BBX 4 12 1 -3
BITMAP
00
C0
20
20
20
10
10
20
20
20
C0
00
ENDCHAR
STARTCHAR C007E
ENCODING -1 126
SWIDTH 750 0
DWIDTH 9 0
BBX 7 12 1 -3
BITMAP
00
60
92
0C
00
00
00
00
00
00
00
00
ENDCHAR
STARTCHAR C007F
ENCODING -1 127
SWIDTH 333 0
DWIDTH 4 0
BBX 1 12 0 -3
BITMAP
00
00
00
00
00
00
00
00
00
00
00
00
ENDCHAR
ENDFONT
